<svg xmlns="http://www.w3.org/2000/svg" width="800" height="360" viewBox="0 0 800 360" role="img" aria-label="Cline — tokens per day">
<title>Cline — tokens per day</title>
<rect width="800" height="360" rx="10" fill="#0b0d10"/>
<text x="64" y="26" font-family="system-ui,-apple-system,Segoe UI,sans-serif" font-size="16" font-weight="600" fill="#e6e9ec">Cline — tokens per day</text>
<line x1="64" y1="320" x2="784" y2="320" stroke="#1b2026" stroke-width="1"/>
<text x="56" y="324" text-anchor="end" font-family="system-ui,-apple-system,Segoe UI,sans-serif" font-size="11" fill="#8a949e">20.1B</text>
<line x1="64" y1="228" x2="784" y2="228" stroke="#1b2026" stroke-width="1"/>
<text x="56" y="232" text-anchor="end" font-family="system-ui,-apple-system,Segoe UI,sans-serif" font-size="11" fill="#8a949e">24.6B</text>
<line x1="64" y1="136.00000000000003" x2="784" y2="136.00000000000003" stroke="#1b2026" stroke-width="1"/>
<text x="56" y="140.00000000000003" text-anchor="end" font-family="system-ui,-apple-system,Segoe UI,sans-serif" font-size="11" fill="#8a949e">29.1B</text>
<line x1="64" y1="44.000000000000114" x2="784" y2="44.000000000000114" stroke="#1b2026" stroke-width="1"/>
<text x="56" y="48.000000000000114" text-anchor="end" font-family="system-ui,-apple-system,Segoe UI,sans-serif" font-size="11" fill="#8a949e">33.6B</text>
<text x="64" y="338" text-anchor="middle" font-family="system-ui,-apple-system,Segoe UI,sans-serif" font-size="11" fill="#8a949e">2026-06-10</text>
<text x="475.4285714285714" y="338" text-anchor="middle" font-family="system-ui,-apple-system,Segoe UI,sans-serif" font-size="11" fill="#8a949e">2026-06-14</text>
<text x="784" y="338" text-anchor="middle" font-family="system-ui,-apple-system,Segoe UI,sans-serif" font-size="11" fill="#8a949e">2026-06-17</text>
<polyline points="64.0,156.5 166.9,116.3 269.7,120.4 372.6,172.6 475.4,247.7 578.3,189.1 681.1,163.9 784.0,82.8" fill="none" stroke="#5ab0f7" stroke-width="2.2" stroke-linejoin="round" stroke-linecap="round"/>
<circle cx="64.0" cy="156.5" r="3.5" fill="#5ab0f7"/>
<circle cx="166.9" cy="116.3" r="3.5" fill="#5ab0f7"/>
<circle cx="269.7" cy="120.4" r="3.5" fill="#5ab0f7"/>
<circle cx="372.6" cy="172.6" r="3.5" fill="#5ab0f7"/>
<circle cx="475.4" cy="247.7" r="3.5" fill="#5ab0f7"/>
<circle cx="578.3" cy="189.1" r="3.5" fill="#5ab0f7"/>
<circle cx="681.1" cy="163.9" r="3.5" fill="#5ab0f7"/>
<circle cx="784.0" cy="82.8" r="3.5" fill="#5ab0f7"/>
<g font-family="system-ui,-apple-system,Segoe UI,sans-serif" font-size="12"><circle cx="68" cy="36" r="4" fill="#5ab0f7"/><text x="78" y="40" fill="#e6e9ec">Cline · 31.7B/day</text></g>
<text x="64" y="350" font-family="system-ui,-apple-system,Segoe UI,sans-serif" font-size="11" fill="#8a949e">token-history · socialpranker.github.io/token-history</text>
<text x="784" y="350" text-anchor="end" font-family="system-ui,-apple-system,Segoe UI,sans-serif" font-size="11" fill="#8a949e">Source: OpenRouter (openrouter.ai/rankings)</text>
</svg>