<svg xmlns="http://www.w3.org/2000/svg" width="800" height="360" viewBox="0 0 800 360" role="img" aria-label="DeepSeek Harness — tokens per day">
<title>DeepSeek Harness — tokens per day</title>
<rect width="800" height="360" rx="10" fill="#0b0d10"/>
<text x="64" y="26" font-family="system-ui,-apple-system,Segoe UI,sans-serif" font-size="16" font-weight="600" fill="#e6e9ec">DeepSeek Harness — tokens per day</text>
<line x1="64" y1="320" x2="784" y2="320" stroke="#1b2026" stroke-width="1"/>
<text x="56" y="324" text-anchor="end" font-family="system-ui,-apple-system,Segoe UI,sans-serif" font-size="11" fill="#8a949e">76.7B</text>
<line x1="64" y1="228" x2="784" y2="228" stroke="#1b2026" stroke-width="1"/>
<text x="56" y="232" text-anchor="end" font-family="system-ui,-apple-system,Segoe UI,sans-serif" font-size="11" fill="#8a949e">201B</text>
<line x1="64" y1="135.99999999999997" x2="784" y2="135.99999999999997" stroke="#1b2026" stroke-width="1"/>
<text x="56" y="139.99999999999997" text-anchor="end" font-family="system-ui,-apple-system,Segoe UI,sans-serif" font-size="11" fill="#8a949e">326B</text>
<line x1="64" y1="44" x2="784" y2="44" stroke="#1b2026" stroke-width="1"/>
<text x="56" y="48" text-anchor="end" font-family="system-ui,-apple-system,Segoe UI,sans-serif" font-size="11" fill="#8a949e">450B</text>
<text x="64" y="338" text-anchor="middle" font-family="system-ui,-apple-system,Segoe UI,sans-serif" font-size="11" fill="#8a949e">2026-08-27</text>
<text x="433.7297297297297" y="338" text-anchor="middle" font-family="system-ui,-apple-system,Segoe UI,sans-serif" font-size="11" fill="#8a949e">2026-09-15</text>
<text x="784" y="338" text-anchor="middle" font-family="system-ui,-apple-system,Segoe UI,sans-serif" font-size="11" fill="#8a949e">2026-10-03</text>
<polyline points="64.0,62.8 83.5,284.0 102.9,291.0 122.4,276.0 141.8,282.8 161.3,297.7 180.8,294.7 200.2,278.4 219.7,290.0 239.1,290.7 258.6,300.8 278.1,310.0 297.5,300.7 317.0,302.1 336.4,288.1 355.9,252.2 375.4,246.7 394.8,275.9 414.3,261.4 433.7,274.9 453.2,247.1 472.6,258.5 492.1,233.3 511.6,249.4 531.0,265.7 550.5,280.1 569.9,274.0 589.4,264.2 608.9,251.3 628.3,179.5 647.8,187.1 667.2,228.1 686.7,207.1 706.2,216.6 725.6,209.6 745.1,185.3 764.5,178.8 784.0,168.4" fill="none" stroke="#5ab0f7" stroke-width="2.2" stroke-linejoin="round" stroke-linecap="round"/>
<g font-family="system-ui,-apple-system,Segoe UI,sans-serif" font-size="12"><circle cx="68" cy="36" r="4" fill="#5ab0f7"/><text x="78" y="40" fill="#e6e9ec">DeepSeek Harness · 282B/day</text></g>
<text x="64" y="350" font-family="system-ui,-apple-system,Segoe UI,sans-serif" font-size="11" fill="#8a949e">token-history · socialpranker.github.io/token-history</text>
<text x="784" y="350" text-anchor="end" font-family="system-ui,-apple-system,Segoe UI,sans-serif" font-size="11" fill="#8a949e">Source: OpenRouter (openrouter.ai/rankings)</text>
</svg>