<svg xmlns="http://www.w3.org/2000/svg" width="800" height="360" viewBox="0 0 800 360" role="img" aria-label="Framer — tokens per day">
<title>Framer — tokens per day</title>
<rect width="800" height="360" rx="10" fill="#0b0d10"/>
<text x="64" y="26" font-family="system-ui,-apple-system,Segoe UI,sans-serif" font-size="16" font-weight="600" fill="#e6e9ec">Framer — tokens per day</text>
<line x1="64" y1="320" x2="784" y2="320" stroke="#1b2026" stroke-width="1"/>
<text x="56" y="324" text-anchor="end" font-family="system-ui,-apple-system,Segoe UI,sans-serif" font-size="11" fill="#8a949e">30.5B</text>
<line x1="64" y1="228" x2="784" y2="228" stroke="#1b2026" stroke-width="1"/>
<text x="56" y="232" text-anchor="end" font-family="system-ui,-apple-system,Segoe UI,sans-serif" font-size="11" fill="#8a949e">42B</text>
<line x1="64" y1="136" x2="784" y2="136" stroke="#1b2026" stroke-width="1"/>
<text x="56" y="140" text-anchor="end" font-family="system-ui,-apple-system,Segoe UI,sans-serif" font-size="11" fill="#8a949e">53.5B</text>
<line x1="64" y1="44" x2="784" y2="44" stroke="#1b2026" stroke-width="1"/>
<text x="56" y="48" text-anchor="end" font-family="system-ui,-apple-system,Segoe UI,sans-serif" font-size="11" fill="#8a949e">65.1B</text>
<text x="64" y="338" text-anchor="middle" font-family="system-ui,-apple-system,Segoe UI,sans-serif" font-size="11" fill="#8a949e">2026-08-27</text>
<text x="464" y="338" text-anchor="middle" font-family="system-ui,-apple-system,Segoe UI,sans-serif" font-size="11" fill="#8a949e">2026-09-01</text>
<text x="784" y="338" text-anchor="middle" font-family="system-ui,-apple-system,Segoe UI,sans-serif" font-size="11" fill="#8a949e">2026-09-05</text>
<polyline points="64.0,73.4 144.0,77.2 224.0,156.1 304.0,277.1 384.0,276.6 464.0,150.0 544.0,101.3 624.0,84.6 704.0,114.1 784.0,161.6" fill="none" stroke="#5ab0f7" stroke-width="2.2" stroke-linejoin="round" stroke-linecap="round"/>
<g font-family="system-ui,-apple-system,Segoe UI,sans-serif" font-size="12"><circle cx="68" cy="36" r="4" fill="#5ab0f7"/><text x="78" y="40" fill="#e6e9ec">Framer · 50.3B/day</text></g>
<text x="64" y="350" font-family="system-ui,-apple-system,Segoe UI,sans-serif" font-size="11" fill="#8a949e">token-history · socialpranker.github.io/token-history</text>
<text x="784" y="350" text-anchor="end" font-family="system-ui,-apple-system,Segoe UI,sans-serif" font-size="11" fill="#8a949e">Source: OpenRouter (openrouter.ai/rankings)</text>
</svg>