<svg xmlns="http://www.w3.org/2000/svg" width="800" height="360" viewBox="0 0 800 360" role="img" aria-label="Hermes Agent — tokens per day">
<title>Hermes Agent — tokens per day</title>
<rect width="800" height="360" rx="10" fill="#0b0d10"/>
<text x="64" y="26" font-family="system-ui,-apple-system,Segoe UI,sans-serif" font-size="16" font-weight="600" fill="#e6e9ec">Hermes Agent — tokens per day</text>
<line x1="64" y1="320" x2="784" y2="320" stroke="#1b2026" stroke-width="1"/>
<text x="56" y="324" text-anchor="end" font-family="system-ui,-apple-system,Segoe UI,sans-serif" font-size="11" fill="#8a949e">663B</text>
<line x1="64" y1="228" x2="784" y2="228" stroke="#1b2026" stroke-width="1"/>
<text x="56" y="232" text-anchor="end" font-family="system-ui,-apple-system,Segoe UI,sans-serif" font-size="11" fill="#8a949e">1.21T</text>
<line x1="64" y1="135.99999999999997" x2="784" y2="135.99999999999997" stroke="#1b2026" stroke-width="1"/>
<text x="56" y="139.99999999999997" text-anchor="end" font-family="system-ui,-apple-system,Segoe UI,sans-serif" font-size="11" fill="#8a949e">1.76T</text>
<line x1="64" y1="44" x2="784" y2="44" stroke="#1b2026" stroke-width="1"/>
<text x="56" y="48" text-anchor="end" font-family="system-ui,-apple-system,Segoe UI,sans-serif" font-size="11" fill="#8a949e">2.31T</text>
<text x="64" y="338" text-anchor="middle" font-family="system-ui,-apple-system,Segoe UI,sans-serif" font-size="11" fill="#8a949e">2026-06-10</text>
<text x="433.7297297297297" y="338" text-anchor="middle" font-family="system-ui,-apple-system,Segoe UI,sans-serif" font-size="11" fill="#8a949e">2026-09-06</text>
<text x="784" y="338" text-anchor="middle" font-family="system-ui,-apple-system,Segoe UI,sans-serif" font-size="11" fill="#8a949e">2026-09-24</text>
<polyline points="64.0,294.7 83.5,288.5 102.9,283.1 122.4,287.5 141.8,300.4 161.3,292.8 180.8,287.8 200.2,290.0 219.7,291.9 239.1,65.9 258.6,154.3 278.1,152.7 297.5,172.6 317.0,155.3 336.4,148.5 355.9,162.3 375.4,165.5 394.8,166.6 414.3,165.9 433.7,185.4 453.2,200.1 472.6,162.6 492.1,176.4 511.6,172.8 531.0,157.0 550.5,153.7 569.9,185.8 589.4,193.6 608.9,168.7 628.3,161.1 647.8,144.6 667.2,133.3 686.7,149.8 706.2,181.6 725.6,189.6 745.1,157.7 764.5,160.9 784.0,154.3" fill="none" stroke="#5ab0f7" stroke-width="2.2" stroke-linejoin="round" stroke-linecap="round"/>
<g font-family="system-ui,-apple-system,Segoe UI,sans-serif" font-size="12"><circle cx="68" cy="36" r="4" fill="#5ab0f7"/><text x="78" y="40" fill="#e6e9ec">Hermes Agent · 1.65T/day</text></g>
<text x="64" y="350" font-family="system-ui,-apple-system,Segoe UI,sans-serif" font-size="11" fill="#8a949e">token-history · socialpranker.github.io/token-history</text>
<text x="784" y="350" text-anchor="end" font-family="system-ui,-apple-system,Segoe UI,sans-serif" font-size="11" fill="#8a949e">Source: OpenRouter (openrouter.ai/rankings)</text>
</svg>