<svg xmlns="http://www.w3.org/2000/svg" width="800" height="360" viewBox="0 0 800 360" role="img" aria-label="ISEKAI ZERO — tokens per day">
<title>ISEKAI ZERO — tokens per day</title>
<rect width="800" height="360" rx="10" fill="#0b0d10"/>
<text x="64" y="26" font-family="system-ui,-apple-system,Segoe UI,sans-serif" font-size="16" font-weight="600" fill="#e6e9ec">ISEKAI ZERO — tokens per day</text>
<line x1="64" y1="320" x2="784" y2="320" stroke="#1b2026" stroke-width="1"/>
<text x="56" y="324" text-anchor="end" font-family="system-ui,-apple-system,Segoe UI,sans-serif" font-size="11" fill="#8a949e">22.6B</text>
<line x1="64" y1="228" x2="784" y2="228" stroke="#1b2026" stroke-width="1"/>
<text x="56" y="232" text-anchor="end" font-family="system-ui,-apple-system,Segoe UI,sans-serif" font-size="11" fill="#8a949e">40.3B</text>
<line x1="64" y1="136" x2="784" y2="136" stroke="#1b2026" stroke-width="1"/>
<text x="56" y="140" text-anchor="end" font-family="system-ui,-apple-system,Segoe UI,sans-serif" font-size="11" fill="#8a949e">57.9B</text>
<line x1="64" y1="44" x2="784" y2="44" stroke="#1b2026" stroke-width="1"/>
<text x="56" y="48" text-anchor="end" font-family="system-ui,-apple-system,Segoe UI,sans-serif" font-size="11" fill="#8a949e">75.6B</text>
<text x="64" y="338" text-anchor="middle" font-family="system-ui,-apple-system,Segoe UI,sans-serif" font-size="11" fill="#8a949e">2026-06-10</text>
<text x="433.23076923076917" y="338" text-anchor="middle" font-family="system-ui,-apple-system,Segoe UI,sans-serif" font-size="11" fill="#8a949e">2026-09-07</text>
<text x="784" y="338" text-anchor="middle" font-family="system-ui,-apple-system,Segoe UI,sans-serif" font-size="11" fill="#8a949e">2026-09-26</text>
<polyline points="64.0,261.8 82.5,299.2 100.9,262.1 119.4,271.9 137.8,269.4 156.3,249.7 174.8,260.3 193.2,268.0 211.7,274.1 230.2,179.7 248.6,172.9 267.1,151.9 285.5,172.5 304.0,161.0 322.5,153.8 340.9,146.8 359.4,177.5 377.8,201.5 396.3,216.3 414.8,218.2 433.2,202.4 451.7,191.9 470.2,200.7 488.6,201.1 507.1,200.5 525.5,205.5 544.0,197.1 562.5,149.6 580.9,159.4 599.4,188.1 617.8,175.8 636.3,107.7 654.8,102.1 673.2,95.3 691.7,66.3 710.2,116.7 728.6,118.1 747.1,106.6 765.5,128.0 784.0,138.8" fill="none" stroke="#5ab0f7" stroke-width="2.2" stroke-linejoin="round" stroke-linecap="round"/>
<g font-family="system-ui,-apple-system,Segoe UI,sans-serif" font-size="12"><circle cx="68" cy="36" r="4" fill="#5ab0f7"/><text x="78" y="40" fill="#e6e9ec">ISEKAI ZERO · 57.4B/day</text></g>
<text x="64" y="350" font-family="system-ui,-apple-system,Segoe UI,sans-serif" font-size="11" fill="#8a949e">token-history · socialpranker.github.io/token-history</text>
<text x="784" y="350" text-anchor="end" font-family="system-ui,-apple-system,Segoe UI,sans-serif" font-size="11" fill="#8a949e">Source: OpenRouter (openrouter.ai/rankings)</text>
</svg>