<svg xmlns="http://www.w3.org/2000/svg" width="800" height="360" viewBox="0 0 800 360" role="img" aria-label="Lemonade — tokens per day">
<title>Lemonade — tokens per day</title>
<rect width="800" height="360" rx="10" fill="#0b0d10"/>
<text x="64" y="26" font-family="system-ui,-apple-system,Segoe UI,sans-serif" font-size="16" font-weight="600" fill="#e6e9ec">Lemonade — tokens per day</text>
<line x1="64" y1="320" x2="784" y2="320" stroke="#1b2026" stroke-width="1"/>
<text x="56" y="324" text-anchor="end" font-family="system-ui,-apple-system,Segoe UI,sans-serif" font-size="11" fill="#8a949e">24.9B</text>
<line x1="64" y1="228" x2="784" y2="228" stroke="#1b2026" stroke-width="1"/>
<text x="56" y="232" text-anchor="end" font-family="system-ui,-apple-system,Segoe UI,sans-serif" font-size="11" fill="#8a949e">32.8B</text>
<line x1="64" y1="135.99999999999997" x2="784" y2="135.99999999999997" stroke="#1b2026" stroke-width="1"/>
<text x="56" y="139.99999999999997" text-anchor="end" font-family="system-ui,-apple-system,Segoe UI,sans-serif" font-size="11" fill="#8a949e">40.7B</text>
<line x1="64" y1="44" x2="784" y2="44" stroke="#1b2026" stroke-width="1"/>
<text x="56" y="48" text-anchor="end" font-family="system-ui,-apple-system,Segoe UI,sans-serif" font-size="11" fill="#8a949e">48.6B</text>
<text x="64" y="338" text-anchor="middle" font-family="system-ui,-apple-system,Segoe UI,sans-serif" font-size="11" fill="#8a949e">2026-06-10</text>
<text x="456.7272727272727" y="338" text-anchor="middle" font-family="system-ui,-apple-system,Segoe UI,sans-serif" font-size="11" fill="#8a949e">2026-06-16</text>
<text x="784" y="338" text-anchor="middle" font-family="system-ui,-apple-system,Segoe UI,sans-serif" font-size="11" fill="#8a949e">2026-09-02</text>
<polyline points="64.0,194.6 129.5,236.4 194.9,244.3 260.4,211.7 325.8,144.6 391.3,113.9 456.7,237.9 522.2,236.2 587.6,268.8 653.1,76.0 718.5,86.4 784.0,145.8" fill="none" stroke="#5ab0f7" stroke-width="2.2" stroke-linejoin="round" stroke-linecap="round"/>
<g font-family="system-ui,-apple-system,Segoe UI,sans-serif" font-size="12"><circle cx="68" cy="36" r="4" fill="#5ab0f7"/><text x="78" y="40" fill="#e6e9ec">Lemonade · 39.8B/day</text></g>
<text x="64" y="350" font-family="system-ui,-apple-system,Segoe UI,sans-serif" font-size="11" fill="#8a949e">token-history · socialpranker.github.io/token-history</text>
<text x="784" y="350" text-anchor="end" font-family="system-ui,-apple-system,Segoe UI,sans-serif" font-size="11" fill="#8a949e">Source: OpenRouter (openrouter.ai/rankings)</text>
</svg>