<svg xmlns="http://www.w3.org/2000/svg" width="800" height="360" viewBox="0 0 800 360" role="img" aria-label="Nous Research API — tokens per day">
<title>Nous Research API — tokens per day</title>
<rect width="800" height="360" rx="10" fill="#0b0d10"/>
<text x="64" y="26" font-family="system-ui,-apple-system,Segoe UI,sans-serif" font-size="16" font-weight="600" fill="#e6e9ec">Nous Research API — tokens per day</text>
<line x1="64" y1="320" x2="784" y2="320" stroke="#1b2026" stroke-width="1"/>
<text x="56" y="324" text-anchor="end" font-family="system-ui,-apple-system,Segoe UI,sans-serif" font-size="11" fill="#8a949e">25.3B</text>
<line x1="64" y1="228" x2="784" y2="228" stroke="#1b2026" stroke-width="1"/>
<text x="56" y="232" text-anchor="end" font-family="system-ui,-apple-system,Segoe UI,sans-serif" font-size="11" fill="#8a949e">55.4B</text>
<line x1="64" y1="136.00000000000003" x2="784" y2="136.00000000000003" stroke="#1b2026" stroke-width="1"/>
<text x="56" y="140.00000000000003" text-anchor="end" font-family="system-ui,-apple-system,Segoe UI,sans-serif" font-size="11" fill="#8a949e">85.6B</text>
<line x1="64" y1="44" x2="784" y2="44" stroke="#1b2026" stroke-width="1"/>
<text x="56" y="48" text-anchor="end" font-family="system-ui,-apple-system,Segoe UI,sans-serif" font-size="11" fill="#8a949e">116B</text>
<text x="64" y="338" text-anchor="middle" font-family="system-ui,-apple-system,Segoe UI,sans-serif" font-size="11" fill="#8a949e">2026-08-27</text>
<text x="437.3333333333333" y="338" text-anchor="middle" font-family="system-ui,-apple-system,Segoe UI,sans-serif" font-size="11" fill="#8a949e">2026-09-17</text>
<text x="784" y="338" text-anchor="middle" font-family="system-ui,-apple-system,Segoe UI,sans-serif" font-size="11" fill="#8a949e">2026-10-04</text>
<polyline points="64.0,64.0 90.7,270.2 117.3,279.4 144.0,288.8 170.7,295.8 197.3,298.7 224.0,306.4 250.7,297.2 277.3,269.5 304.0,267.3 330.7,286.0 357.3,293.5 384.0,259.8 410.7,280.6 437.3,269.1 464.0,231.4 490.7,269.6 517.3,301.8 544.0,237.2 570.7,233.0 597.3,254.8 624.0,257.0 650.7,247.8 677.3,207.9 704.0,107.3 730.7,244.5 757.3,270.3 784.0,275.3" fill="none" stroke="#5ab0f7" stroke-width="2.2" stroke-linejoin="round" stroke-linecap="round"/>
<g font-family="system-ui,-apple-system,Segoe UI,sans-serif" font-size="12"><circle cx="68" cy="36" r="4" fill="#5ab0f7"/><text x="78" y="40" fill="#e6e9ec">Nous Research API · 39.9B/day</text></g>
<text x="64" y="350" font-family="system-ui,-apple-system,Segoe UI,sans-serif" font-size="11" fill="#8a949e">token-history · socialpranker.github.io/token-history</text>
<text x="784" y="350" text-anchor="end" font-family="system-ui,-apple-system,Segoe UI,sans-serif" font-size="11" fill="#8a949e">Source: OpenRouter (openrouter.ai/rankings)</text>
</svg>