<svg xmlns="http://www.w3.org/2000/svg" width="800" height="360" viewBox="0 0 800 360" role="img" aria-label="OpenClaw — tokens per day">
<title>OpenClaw — tokens per day</title>
<rect width="800" height="360" rx="10" fill="#0b0d10"/>
<text x="64" y="26" font-family="system-ui,-apple-system,Segoe UI,sans-serif" font-size="16" font-weight="600" fill="#e6e9ec">OpenClaw — tokens per day</text>
<line x1="64" y1="320" x2="784" y2="320" stroke="#1b2026" stroke-width="1"/>
<text x="56" y="324" text-anchor="end" font-family="system-ui,-apple-system,Segoe UI,sans-serif" font-size="11" fill="#8a949e">111B</text>
<line x1="64" y1="227.99999999999997" x2="784" y2="227.99999999999997" stroke="#1b2026" stroke-width="1"/>
<text x="56" y="231.99999999999997" text-anchor="end" font-family="system-ui,-apple-system,Segoe UI,sans-serif" font-size="11" fill="#8a949e">147B</text>
<line x1="64" y1="135.99999999999997" x2="784" y2="135.99999999999997" stroke="#1b2026" stroke-width="1"/>
<text x="56" y="139.99999999999997" text-anchor="end" font-family="system-ui,-apple-system,Segoe UI,sans-serif" font-size="11" fill="#8a949e">184B</text>
<line x1="64" y1="44" x2="784" y2="44" stroke="#1b2026" stroke-width="1"/>
<text x="56" y="48" text-anchor="end" font-family="system-ui,-apple-system,Segoe UI,sans-serif" font-size="11" fill="#8a949e">220B</text>
<text x="64" y="338" text-anchor="middle" font-family="system-ui,-apple-system,Segoe UI,sans-serif" font-size="11" fill="#8a949e">2026-06-10</text>
<text x="432.37209302325584" y="338" text-anchor="middle" font-family="system-ui,-apple-system,Segoe UI,sans-serif" font-size="11" fill="#8a949e">2026-09-09</text>
<text x="784" y="338" text-anchor="middle" font-family="system-ui,-apple-system,Segoe UI,sans-serif" font-size="11" fill="#8a949e">2026-09-30</text>
<polyline points="64.0,129.4 80.7,108.8 97.5,115.8 114.2,118.4 131.0,181.3 147.7,169.1 164.5,127.9 181.2,149.3 198.0,140.6 214.7,183.5 231.4,221.5 248.2,234.0 264.9,270.5 281.7,263.8 298.4,224.5 315.2,214.2 331.9,188.7 348.7,162.2 365.4,152.6 382.1,188.4 398.9,216.7 415.6,164.5 432.4,173.5 449.1,162.8 465.9,144.9 482.6,140.9 499.3,205.1 516.1,193.9 532.8,135.7 549.6,136.1 566.3,131.0 583.1,132.7 599.8,125.9 616.6,187.0 633.3,180.0 650.0,110.9 666.8,111.1 683.5,92.5 700.3,92.3 717.0,75.5 733.8,146.5 750.5,152.8 767.3,92.9 784.0,90.8" fill="none" stroke="#5ab0f7" stroke-width="2.2" stroke-linejoin="round" stroke-linecap="round"/>
<g font-family="system-ui,-apple-system,Segoe UI,sans-serif" font-size="12"><circle cx="68" cy="36" r="4" fill="#5ab0f7"/><text x="78" y="40" fill="#e6e9ec">OpenClaw · 201B/day</text></g>
<text x="64" y="350" font-family="system-ui,-apple-system,Segoe UI,sans-serif" font-size="11" fill="#8a949e">token-history · socialpranker.github.io/token-history</text>
<text x="784" y="350" text-anchor="end" font-family="system-ui,-apple-system,Segoe UI,sans-serif" font-size="11" fill="#8a949e">Source: OpenRouter (openrouter.ai/rankings)</text>
</svg>