<svg xmlns="http://www.w3.org/2000/svg" width="800" height="360" viewBox="0 0 800 360" role="img" aria-label="pi — tokens per day">
<title>pi — tokens per day</title>
<rect width="800" height="360" rx="10" fill="#0b0d10"/>
<text x="64" y="26" font-family="system-ui,-apple-system,Segoe UI,sans-serif" font-size="16" font-weight="600" fill="#e6e9ec">pi — tokens per day</text>
<line x1="64" y1="320" x2="784" y2="320" stroke="#1b2026" stroke-width="1"/>
<text x="56" y="324" text-anchor="end" font-family="system-ui,-apple-system,Segoe UI,sans-serif" font-size="11" fill="#8a949e">30.4B</text>
<line x1="64" y1="228" x2="784" y2="228" stroke="#1b2026" stroke-width="1"/>
<text x="56" y="232" text-anchor="end" font-family="system-ui,-apple-system,Segoe UI,sans-serif" font-size="11" fill="#8a949e">151B</text>
<line x1="64" y1="136" x2="784" y2="136" stroke="#1b2026" stroke-width="1"/>
<text x="56" y="140" text-anchor="end" font-family="system-ui,-apple-system,Segoe UI,sans-serif" font-size="11" fill="#8a949e">271B</text>
<line x1="64" y1="44" x2="784" y2="44" stroke="#1b2026" stroke-width="1"/>
<text x="56" y="48" text-anchor="end" font-family="system-ui,-apple-system,Segoe UI,sans-serif" font-size="11" fill="#8a949e">391B</text>
<text x="64" y="338" text-anchor="middle" font-family="system-ui,-apple-system,Segoe UI,sans-serif" font-size="11" fill="#8a949e">2026-06-10</text>
<text x="435.61290322580646" y="338" text-anchor="middle" font-family="system-ui,-apple-system,Segoe UI,sans-serif" font-size="11" fill="#8a949e">2026-09-03</text>
<text x="784" y="338" text-anchor="middle" font-family="system-ui,-apple-system,Segoe UI,sans-serif" font-size="11" fill="#8a949e">2026-09-18</text>
<polyline points="64.0,288.7 87.2,279.2 110.5,239.6 133.7,309.5 156.9,315.9 180.1,307.0 203.4,279.3 226.6,274.9 249.8,293.7 273.0,131.5 296.3,62.4 319.5,167.5 342.7,173.2 365.9,197.8 389.2,184.1 412.4,167.2 435.6,160.6 458.8,136.2 482.1,162.3 505.3,197.2 528.5,203.4 551.7,178.7 575.0,166.3 598.2,158.8 621.4,123.7 644.6,104.5 667.9,158.0 691.1,149.8 714.3,146.8 737.5,109.4 760.8,82.7 784.0,60.9" fill="none" stroke="#5ab0f7" stroke-width="2.2" stroke-linejoin="round" stroke-linecap="round"/>
<g font-family="system-ui,-apple-system,Segoe UI,sans-serif" font-size="12"><circle cx="68" cy="36" r="4" fill="#5ab0f7"/><text x="78" y="40" fill="#e6e9ec">pi · 369B/day</text></g>
<text x="64" y="350" font-family="system-ui,-apple-system,Segoe UI,sans-serif" font-size="11" fill="#8a949e">token-history · socialpranker.github.io/token-history</text>
<text x="784" y="350" text-anchor="end" font-family="system-ui,-apple-system,Segoe UI,sans-serif" font-size="11" fill="#8a949e">Source: OpenRouter (openrouter.ai/rankings)</text>
</svg>